<svg width="30" height="29" viewBox="0 0 30 29" fill="none" xmlns="http://www.w3.org/2000/svg">
<path d="M26.9688 0C28.2809 0.000118162 29.3447 1.05184 29.3447 2.34863V26.6514C29.3447 27.9482 28.2809 28.9999 26.9688 29H2.37598C1.06375 28.9999 0 27.9482 0 26.6514V2.34863C0 1.0518 1.06375 5.61543e-05 2.37598 0H26.9688ZM4.79199 13.668C4.76544 13.9611 4.75196 14.2585 4.75195 14.5586C4.75195 20.0053 9.22002 24.4208 14.7314 24.4209C20.243 24.4209 24.7109 20.0054 24.7109 14.5586C24.7109 14.2225 24.6944 13.8899 24.6611 13.5625L4.79199 13.668ZM14.7314 4.69629C10.369 4.6964 6.6604 7.46288 5.30371 11.3174L24.124 11.2178C22.7389 7.41532 19.0563 4.69629 14.7314 4.69629Z" fill="#1E1E1E"/>
</svg>