<svg viewBox="0 0 1271 247" fill="none" xmlns="http://www.w3.org/2000/svg">
<path d="M486.412 130.391C486.412 131.926 486.157 135.919 485.647 142.369H348.075C350.83 156.497 357.512 167.912 368.122 176.614C378.834 185.213 391.892 189.513 407.297 189.513C418.723 189.513 429.231 187.107 438.821 182.296C448.411 177.381 455.909 171.085 461.316 163.407L479.832 179.378C471.773 190.23 461.316 198.778 448.462 205.023C435.709 211.268 421.682 214.391 406.379 214.391C381.384 214.391 360.573 206.303 343.944 190.127C327.315 173.952 319 153.835 319 129.776C319 114.215 322.622 100.087 329.865 87.3925C337.21 74.5954 347.31 64.5625 360.164 57.2937C373.019 50.025 387.301 46.3906 403.012 46.3906C418.621 46.3906 432.802 50.025 445.554 57.2937C458.306 64.5625 468.304 74.6466 475.547 87.546C482.791 100.343 486.412 114.625 486.412 130.391ZM402.706 71.2681C388.832 71.2681 376.845 75.6191 366.745 84.3212C356.645 92.9208 350.32 104.08 347.769 117.798H457.796C455.246 103.875 448.921 92.6648 438.821 84.1676C428.721 75.568 416.683 71.2681 402.706 71.2681Z" fill="#1E1E1E"/>
<path d="M653.213 17L680.146 17V210.552H653.213V181.681C646.378 191.919 637.553 199.956 626.739 205.791C616.027 211.524 604.142 214.391 591.083 214.391C576.087 214.391 562.467 210.756 550.225 203.488C537.983 196.116 528.393 186.032 521.456 173.235C514.621 160.336 511.203 146.054 511.203 130.391C511.203 114.727 514.621 100.497 521.456 87.6996C528.393 74.8001 537.983 64.716 550.225 57.4473C562.467 50.0762 576.087 46.3906 591.083 46.3906C604.142 46.3906 616.027 49.3084 626.739 55.1438C637.553 60.8769 646.378 68.8623 653.213 79.0999V17ZM596.133 188.285C612.456 188.285 626.025 182.756 636.839 171.7C647.755 160.643 653.213 146.873 653.213 130.391C653.213 113.908 647.755 100.138 636.839 89.0817C626.025 78.025 612.456 72.4967 596.133 72.4967C579.708 72.4967 566.038 78.025 555.122 89.0817C544.206 100.138 538.748 113.908 538.748 130.391C538.748 146.873 544.206 160.643 555.122 171.7C566.038 182.756 579.708 188.285 596.133 188.285Z" fill="#1E1E1E"/>
<path d="M883.061 130.391C883.061 131.926 882.806 135.919 882.295 142.369H744.723C747.478 156.497 754.16 167.912 764.77 176.614C775.482 185.213 788.54 189.513 803.945 189.513C815.371 189.513 825.879 187.107 835.469 182.296C845.059 177.381 852.557 171.085 857.964 163.407L876.48 179.378C868.421 190.23 857.964 198.778 845.11 205.023C832.357 211.268 818.33 214.391 803.027 214.391C778.032 214.391 757.221 206.303 740.592 190.127C723.963 173.952 715.648 153.835 715.648 129.776C715.648 114.215 719.27 100.087 726.513 87.3925C733.858 74.5954 743.958 64.5625 756.813 57.2937C769.667 50.025 783.95 46.3906 799.66 46.3906C815.269 46.3906 829.45 50.025 842.202 57.2937C854.954 64.5625 864.952 74.6466 872.196 87.546C879.439 100.343 883.061 114.625 883.061 130.391ZM799.354 71.2681C785.48 71.2681 773.493 75.6191 763.393 84.3212C753.293 92.9208 746.968 104.08 744.417 117.798H854.444C851.894 103.875 845.569 92.6648 835.469 84.1676C825.369 75.568 813.331 71.2681 799.354 71.2681Z" fill="#1E1E1E"/>
<path d="M1002.12 46.3906C1021.6 46.3906 1037.26 52.3285 1049.1 64.2042C1061.03 76.0798 1067 91.8458 1067 111.502V210.552H1040.07V119.948C1040.07 105.615 1035.83 94.1493 1027.37 85.5497C1018.9 76.8477 1007.57 72.4967 993.394 72.4967C978.601 72.4967 966.767 76.8989 957.891 85.7032C949.016 94.5076 944.578 106.127 944.578 120.562V210.552H917.645V50.2297H944.578V74.6466C957.534 55.8093 976.714 46.3906 1002.12 46.3906Z" fill="#1E1E1E"/>
<path fill-rule="evenodd" clip-rule="evenodd" d="M1141.23 203.488C1154.43 210.756 1169.07 214.391 1185.15 214.391C1209.49 214.391 1229.86 206.354 1246.25 190.281C1246.5 190.036 1246.75 189.79 1247 189.544V212.391H1271V132.391H1270.98C1270.99 131.727 1271 131.06 1271 130.391C1271 106.537 1262.75 86.5734 1246.25 70.5003C1229.86 54.4272 1209.49 46.3906 1185.15 46.3906C1169.07 46.3906 1154.43 50.0762 1141.23 57.4473C1128.03 64.716 1117.66 74.8001 1110.14 87.6996C1102.71 100.497 1099 114.727 1099 130.391C1099 146.054 1102.71 160.336 1110.14 173.235C1117.66 186.032 1128.03 196.116 1141.23 203.488ZM1226.3 171.7C1215.37 182.756 1201.65 188.285 1185.15 188.285C1168.55 188.285 1154.74 182.756 1143.7 171.7C1132.67 160.643 1127.15 146.873 1127.15 130.391C1127.15 113.908 1132.67 100.138 1143.7 89.0817C1154.74 78.025 1168.55 72.4967 1185.15 72.4967C1201.65 72.4967 1215.37 78.025 1226.3 89.0817C1237.33 100.138 1242.85 113.908 1242.85 130.391C1242.85 146.873 1237.33 160.643 1226.3 171.7Z" fill="#1E1E1E"/>
<rect width="247" height="247" rx="20" fill="#1E1E1E"/>
<path fill-rule="evenodd" clip-rule="evenodd" d="M40.3377 116.417C40.1142 118.914 40 121.444 40 124C40 170.392 77.6081 208 124 208C170.392 208 208 170.392 208 124C208 121.137 207.857 118.308 207.577 115.519L40.3377 116.417ZM44.6419 96.3932L203.057 95.543C191.398 63.1566 160.403 40 124 40C87.2791 40 56.0616 63.5626 44.6419 96.3932Z" fill="white"/>
</svg>
